<svg xmlns="http://www.w3.org/2000/svg" viewBox="0 0 100 100">
  <circle cx="50" cy="50" r="50" fill="#e6eeff"/>
  <path d="M35.5,30c0,0-1.8,2.3-1.8,5.1c0,2.9,1.8,5.1,1.8,5.1s-3.6-1.2-3.6-5.1C31.9,31.2,35.5,30,35.5,30z" fill="#4e80ff"/>
  <path d="M64.5,30c0,0,1.8,2.3,1.8,5.1c0,2.9-1.8,5.1-1.8,5.1s3.6-1.2,3.6-5.1C68.1,31.2,64.5,30,64.5,30z" fill="#4e80ff"/>
  <path d="M50,70c-11,0-20-9-20-20v-5c0-11,9-20,20-20s20,9,20,20v5C70,61,61,70,50,70z M50,30c-8.3,0-15,6.7-15,15v5c0,8.3,6.7,15,15,15s15-6.7,15-15v-5C65,36.7,58.3,30,50,30z" fill="#4e80ff"/>
  <path d="M50,65c-8.3,0-15-6.7-15-15v-5c0-8.3,6.7-15,15-15s15,6.7,15,15v5C65,58.3,58.3,65,50,65z M50,35c-5.5,0-10,4.5-10,10v5c0,5.5,4.5,10,10,10s10-4.5,10-10v-5C60,39.5,55.5,35,50,35z" fill="#4e80ff"/>
  <path d="M40,45c-1.7,0-3-1.3-3-3s1.3-3,3-3s3,1.3,3,3S41.7,45,40,45z" fill="#4e80ff"/>
  <path d="M60,45c-1.7,0-3-1.3-3-3s1.3-3,3-3s3,1.3,3,3S61.7,45,60,45z" fill="#4e80ff"/>
  <path d="M50,55c-2.8,0-5-2.2-5-5h10C55,52.8,52.8,55,50,55z" fill="#4e80ff"/>
</svg>
